# xmcd
#
# Track frame offsets:
#	150
#	14159
#	31146
#	42616
#	54260
#	68369
#	81688
#	97169
#	113723
#	128035
#	142130
#	156587
#	170765
#	185525
#
# Disc length: 2729 seconds
#
# Revision: 0
# Processed by: cddbd v1.5.2PL0 Copyright (c) Steve Scherf et al.
# Submitted via: EasyCDDAExtractor 11.5.0.1
#
DISCID=cf0aa70e
DTITLE=Herança - O Som Que Balança
DYEAR=2009
DGENRE=Pop
TTITLE0=Levada Do Amor
TTITLE1=Menina Fala Sério
TTITLE2=Vem Me Amar
TTITLE3=Baladeira
TTITLE4=Vou Te Mostrar O Que É Amor
TTITLE5=Risca Faca
TTITLE6=Nome Da Faixa 7
TTITLE7=Inveja
TTITLE8=Corre E Vem Me Amar
TTITLE9=Vai Chorar
TTITLE10=Louca Obsessão
TTITLE11=Grito A Dor
TTITLE12=É Dos Galinhas M
TTITLE13=Dia De Festa
EXTD=
EXTT0=
EXTT1=
EXTT2=
EXTT3=
EXTT4=
EXTT5=
EXTT6=
EXTT7=
EXTT8=
EXTT9=
EXTT10=
EXTT11=
EXTT12=
EXTT13=
PLAYORDER=
